<svg id="Layer_1" data-name="Layer 1" xmlns="http://www.w3.org/2000/svg" viewBox="0 0 1920 10"><defs><style>.cls-1{fill:#0084fc;}.cls-2{fill:#e1eef9;}.cls-3{fill:#1999f9;}.cls-4{fill:#32a4f9;}.cls-5{fill:#4baff9;}.cls-6{fill:#64baf9;}.cls-7{fill:#7dc4f9;}.cls-8{fill:#95cef9;}.cls-9{fill:#afdaf9;}.cls-10{fill:#c7e4f9;}</style></defs><title>band</title><polygon class="cls-1" points="197.33 0 187.08 10 0 10 0 0 197.33 0"/><polygon class="cls-2" points="1681.17 10 1691.42 0 1920 0 1920 10 1681.17 10"/><polygon class="cls-3" points="197.22 0 186.97 10 373.82 10 384.07 0 197.22 0"/><polygon class="cls-4" points="384.04 0 373.79 10 560.65 10 570.9 0 384.04 0"/><polygon class="cls-5" points="570.71 0 560.46 10 747.31 10 757.56 0 570.71 0"/><polygon class="cls-6" points="757.46 0 747.21 10 934.06 10 944.31 0 757.46 0"/><polygon class="cls-7" points="944.46 0 934.21 10 1121.06 10 1131.31 0 944.46 0"/><polygon class="cls-8" points="1131.46 0 1121.21 10 1308.06 10 1318.31 0 1131.46 0"/><polygon class="cls-9" points="1317.96 0 1307.71 10 1494.56 10 1504.81 0 1317.96 0"/><polygon class="cls-10" points="1504.63 0 1494.38 10 1681.23 10 1691.48 0 1504.63 0"/></svg>