<svg id="Layer_1" data-name="Layer 1" xmlns="http://www.w3.org/2000/svg" viewBox="0 0 192.02 30.45"><defs><style>.cls-1{fill:#d8b72b;}</style></defs><title>stars-fill</title><polygon class="cls-1" points="16.01 5.2 25.9 0 24.01 11.02 32.02 18.82 20.96 20.43 16.01 30.45 11.06 20.43 0 18.82 8 11.02 6.12 0 16.01 5.2"/><polygon class="cls-1" points="56.01 5.2 65.9 0 64.01 11.02 72.02 18.82 60.96 20.43 56.01 30.45 51.06 20.43 40 18.82 48 11.02 46.12 0 56.01 5.2"/><polygon class="cls-1" points="96.01 5.2 105.9 0 104.01 11.02 112.02 18.82 100.96 20.43 96.01 30.45 91.06 20.43 80 18.82 88 11.02 86.11 0 96.01 5.2"/><polygon class="cls-1" points="136.01 5.2 145.9 0 144.01 11.02 152.02 18.82 140.96 20.43 136.01 30.45 131.06 20.43 120 18.82 128 11.02 126.11 0 136.01 5.2"/><polygon class="cls-1" points="176.01 5.2 185.9 0 184.01 11.02 192.02 18.82 180.96 20.43 176.01 30.45 171.06 20.43 160 18.82 168 11.02 166.12 0 176.01 5.2"/></svg>